Coordinates
version=1
nRows=17
nColumns=40
inDegrees=yes

Units are S.I. units (second, meters, Newtons, ...)
Angles are in degrees.

endheader
time	pelvis_tilt	pelvis_list	pelvis_rotation	pelvis_tx	pelvis_ty	pelvis_tz	hip_flexion_r	hip_adduction_r	hip_rotation_r	knee_angle_r	knee_angle_r_beta	ankle_angle_r	subtalar_angle_r	mtp_angle_r	hip_flexion_l	hip_adduction_l	hip_rotation_l	knee_angle_l	knee_angle_l_beta	ankle_angle_l	subtalar_angle_l	mtp_angle_l	lumbar_extension	lumbar_bending	lumbar_rotation	arm_flex_r	arm_add_r	arm_rot_r	elbow_flex_r	pro_sup_r	wrist_flex_r	wrist_dev_r	arm_flex_l	arm_add_l	arm_rot_l	elbow_flex_l	pro_sup_l	wrist_flex_l	wrist_dev_l
      2.32692857	     -3.32316562	     -4.50280712	     12.29713916	      1.05078025	      0.92292123	      0.50365122	      8.79573263	      5.66540667	    -17.17740158	     18.72367179	     18.72367179	     16.34710470	     -6.81110578	     -3.86590388	     28.47301184	     -8.12476020	      5.51995097	     23.70575888	     23.70575888	      5.02499617	     -6.32144077	      3.26076460	     -9.04406405	      3.25068432	      4.17602929	     54.97119292	    -19.50078011	     -4.90470543	     84.23913064	     44.39905733	      0.00000000	      0.00000000	    -21.35552592	     -9.91564939	     15.48835418	     28.90222091	     42.92184120	      0.00000000	      0.00000000
      2.34885714	     -3.53364794	     -4.58961054	     12.59335179	      1.05015326	      0.92231177	      0.50054796	      8.70078124	      5.57737921	    -17.26031048	     18.65987466	     18.65987466	     16.59971814	     -6.95405930	     -3.91461156	     28.19202949	     -7.92543846	      5.68051906	     23.60952153	     23.60952153	      5.32341263	     -6.19024583	      3.13152662	     -8.71823194	      3.18293101	      4.20451057	     55.36683467	    -19.47388823	     -4.92318655	     84.38839921	     44.39770045	      0.00000000	      0.00000000	    -21.11787043	     -9.71053838	     15.54286450	     29.00779122	     42.92118082	      0.00000000	      0.00000000
      2.37078571	     -3.60816895	     -4.57901594	     12.88486102	      1.04947629	      0.92212741	      0.49720139	      8.45295763	      5.41657184	    -17.28241897	     18.60616598	     18.60616598	     16.70698373	     -7.27059108	     -3.84544437	     27.61685184	     -7.72547257	      5.56075529	     23.18732236	     23.18732236	      5.45115070	     -5.63275129	      2.79574365	     -8.74497493	      3.10492129	      3.98306768	     56.13482395	    -19.12154498	     -5.02150688	     85.02702425	     44.39476889	      0.00000000	      0.00000000	    -20.57791803	     -9.41006282	     15.89338420	     29.03761675	     42.90899340	      0.00000000	      0.00000000
      2.39271429	     -3.79474778	     -4.61734661	     13.15270645	      1.04889458	      0.92174108	      0.49355288	      8.30628256	      5.25464643	    -17.36043912	     18.52902306	     18.52902306	     16.83760240	     -7.47388159	     -3.81381376	     27.34062117	     -7.49353538	      5.59868153	     23.02175898	     23.02175898	      5.67499639	     -5.34476450	      2.55758240	     -8.52997986	      3.05314593	      3.89934393	     56.41597823	    -18.99454707	     -5.08096766	     85.22337408	     44.39585473	      0.00000000	      0.00000000	    -19.99012661	     -9.21007575	     16.02357534	     29.17934812	     42.91091788	      0.00000000	      0.00000000
      2.41464286	     -3.86011409	     -4.57073594	     13.33719205	      1.04852750	      0.92172221	      0.48974120	      7.93335889	      5.06543894	    -17.24945559	     18.33209500	     18.33209500	     16.95350211	     -7.74311209	     -3.65493742	     26.88571958	     -7.28923929	      5.32444304	     22.77426957	     22.77426957	      5.86273500	     -4.76820659	      1.92094653	     -8.48213682	      2.98407595	      3.86137663	     56.52625854	    -18.74689698	     -5.35843815	     85.57832303	     44.40874551	      0.00000000	      0.00000000	    -19.31420925	     -9.05076670	     16.43455182	     29.06336869	     42.90134463	      0.00000000	      0.00000000
      2.43657143	     -4.05361952	     -4.58629327	     13.48913890	      1.04808163	      0.92150615	      0.48568899	      7.75474039	      4.85111334	    -17.27058720	     18.23527610	     18.23527610	     17.07884234	     -7.83225546	     -3.64613384	     26.75407755	     -7.01471230	      5.37101080	     22.79186775	     22.79186775	      6.17377720	     -4.72857704	      1.74351212	     -8.24516901	      2.97486759	      3.80688199	     56.55560065	    -18.66140579	     -5.34699919	     85.59978188	     44.40892953	      0.00000000	      0.00000000	    -18.82215514	     -8.94173696	     16.46509292	     29.22116298	     42.90768231	      0.00000000	      0.00000000
      2.45850000	     -4.21606626	     -4.48871862	     13.62163841	      1.04764718	      0.92158349	      0.48146227	      7.43879401	      4.53684808	    -17.28700771	     17.99279339	     17.99279339	     17.11027685	     -7.89298258	     -3.55469321	     26.60468853	     -6.63847446	      5.34304615	     22.86299768	     22.86299768	      6.39007060	     -4.63591340	      1.53133606	     -8.12621829	      2.87039826	      3.78566290	     56.51796912	    -18.48716429	     -5.33835249	     85.57916008	     44.41184893	      0.00000000	      0.00000000	    -18.00830542	     -8.88035731	     16.52270590	     29.43169344	     42.91906575	      0.00000000	      0.00000000
      2.48042857	     -4.29276728	     -4.41044953	     13.62214408	      1.04745467	      0.92187828	      0.47727407	      6.93161133	      4.29483422	    -17.26448301	     17.57394434	     17.57394434	     17.12329523	     -7.81750785	     -3.42097946	     26.36201922	     -6.34432569	      5.21046020	     22.96364567	     22.96364567	      6.68586533	     -4.67006495	      1.26734377	     -8.06472834	      2.78176412	      3.87959829	     56.39799886	    -18.38262613	     -5.41635041	     85.45347816	     44.42293407	      0.00000000	      0.00000000	    -17.32994222	     -8.93715644	     16.62155763	     29.53797480	     42.92791222	      0.00000000	      0.00000000
      2.50235714	     -4.32293665	     -4.39705857	     13.59537186	      1.04732430	      0.92234318	      0.47293599	      6.29783511	      4.12394685	    -17.30972468	     16.99818139	     16.99818139	     17.13188804	     -7.33296951	     -3.08500619	     26.05610732	     -6.08838434	      5.25603509	     22.98345199	     22.98345199	      6.63602990	     -4.94724460	      0.32560281	     -7.99991436	      2.87282744	      4.31835884	     56.13854403	    -18.41168980	     -6.24357871	     85.26321345	     44.54068998	      0.00000000	      0.00000000	    -16.41540829	     -9.20488604	     18.58777375	     29.12357621	     42.88641129	      0.00000000	      0.00000000
      2.52428571	     -4.40279923	     -4.36282045	     13.47191195	      1.04716845	      0.92271270	      0.46868553	      5.78941055	      3.90753624	    -17.28024805	     16.55038243	     16.55038243	     17.05819146	     -7.06140106	     -2.99668117	     25.89430669	     -5.80444761	      5.28755717	     23.24047037	     23.24047037	      6.94988136	     -5.33228331	      0.30855894	     -7.91826010	      2.89297732	      4.46756344	     55.96021959	    -18.41399150	     -6.12948159	     84.99060460	     44.55417547	      0.00000000	      0.00000000	    -15.94844630	     -9.37828922	     18.63963542	     29.45585138	     42.91052334	      0.00000000	      0.00000000
      2.54621429	     -4.57612564	     -4.32394160	     13.25716361	      1.04689669	      0.92294734	      0.46457063	      5.51596776	      3.62556070	    -17.16391594	     16.35068515	     16.35068515	     16.97462201	     -6.89179976	     -2.94094697	     25.80583740	     -5.54228776	      5.21314444	     23.45917132	     23.45917132	      7.26364774	     -5.60022798	      0.20691921	     -7.80397094	      2.88495559	      4.56809998	     55.80815978	    -18.22726262	     -6.02759971	     84.87204947	     44.55590568	      0.00000000	      0.00000000	    -15.51145601	     -9.53226183	     18.61684782	     29.63113617	     42.92530446	      0.00000000	      0.00000000
      2.56814286	     -4.58146751	     -4.37775314	     13.01326634	      1.04677377	      0.92348841	      0.46043147	      4.83627266	      3.51836114	    -17.26021800	     15.67396091	     15.67396091	     16.78561142	     -6.13660694	     -2.88364319	     25.58493895	     -5.34388896	      5.39848578	     23.76671178	     23.76671178	      7.56998925	     -6.41092176	      0.44738234	     -7.78928962	      3.00312084	      4.82350691	     55.57345131	    -18.32968675	     -6.02218018	     84.24080891	     44.58482058	      0.00000000	      0.00000000	    -15.18802253	     -9.82197573	     18.62995720	     30.06488070	     42.95338056	      0.00000000	      0.00000000
      2.59007143	     -4.75745987	     -4.44279830	     12.75378139	      1.04634502	      0.92373191	      0.45632345	      4.70104171	      3.30108425	    -17.15528354	     15.65337259	     15.65337259	     16.60665871	     -6.01538157	     -2.83015590	     25.45172496	     -5.20023741	      5.28068708	     23.84281460	     23.84281460	      7.84304088	     -6.58934965	      0.36909217	     -7.68011761	      3.15618484	      4.75127147	     55.48228785	    -18.27125870	     -5.99518015	     84.19441794	     44.58560845	      0.00000000	      0.00000000	    -14.97167050	     -9.95944436	     18.60533039	     30.13334704	     42.96128351	      0.00000000	      0.00000000
      2.61200000	     -4.79683227	     -4.44409479	     12.31620777	      1.04616228	      0.92432496	      0.45254199	      4.05539277	      3.10221647	    -17.27382310	     14.97199202	     14.97199202	     16.39123386	     -4.83694370	     -2.86606637	     25.19601878	     -4.99209356	      5.40065481	     24.12496494	     24.12496494	      8.16984934	     -7.61366021	      0.85561109	     -7.66675523	      3.10875770	      5.10284818	     55.03544242	    -18.06648545	     -5.89865466	     83.32617127	     44.62031650	      0.00000000	      0.00000000	    -14.55356314	    -10.41555062	     18.59088675	     30.73112935	     43.00095659	      0.00000000	      0.00000000
      2.63392857	     -4.95020459	     -4.47952787	     11.87631776	      1.04570472	      0.92466156	      0.44872858	      3.88064773	      2.85913663	    -17.08024999	     14.89528545	     14.89528545	     16.23117363	     -4.48314792	     -2.85089306	     25.02126620	     -4.88553583	      5.14938539	     24.25683806	     24.25683806	      8.42710617	     -7.95436446	      0.89226350	     -7.56764322	      3.18385178	      5.14887961	     54.66267415	    -17.77192396	     -5.76963806	     83.12032831	     44.62380488	      0.00000000	      0.00000000	    -14.22221107	    -10.67743205	     18.55693211	     30.89148620	     43.01800463	      0.00000000	      0.00000000
      2.65585714	     -5.13095508	     -4.56142638	     11.43294443	      1.04508908	      0.92504600	      0.44492358	      3.71572779	      2.65648089	    -16.96689425	     14.72684020	     14.72684020	     15.99227679	     -3.97844644	     -2.80627763	     24.83511978	     -4.80878050	      4.93489580	     24.28258512	     24.28258512	      8.74835808	     -8.31443103	      0.97324299	     -7.53749458	      3.24480368	      5.13049554	     54.15185412	    -17.56493578	     -5.68616074	     82.77895240	     44.63337237	      0.00000000	      0.00000000	    -13.89099139	    -10.91929426	     18.52489453	     31.07216138	     43.03692360	      0.00000000	      0.00000000
      2.67778571	     -5.29037787	     -4.65703125	     10.94385465	      1.04443667	      0.92549880	      0.44117629	      3.56980269	      2.46223863	    -16.75464837	     14.62302568	     14.62302568	     15.75625118	     -3.49493490	     -2.75712221	     24.61357424	     -4.78298901	      4.64792904	     24.27764632	     24.27764632	      8.98836230	     -8.61538656	      1.03507303	     -7.46298412	      3.35786434	      5.10244387	     53.51968930	    -17.27763576	     -5.56537751	     82.46280970	     44.63908412	      0.00000000	      0.00000000	    -13.41645945	    -11.16573461	     18.47634899	     31.23635990	     43.05655556	      0.00000000	      0.00000000
